<svg width="1991" height="1346" viewBox="0 0 1991 1346" fill="none" xmlns="http://www.w3.org/2000/svg">
<g opacity="0.15">
<mask id="mask0_3111_688" style="mask-type:luminance" maskUnits="userSpaceOnUse" x="0" y="39" width="1991" height="1265">
<path d="M0 39.5165H1990.8V1303.12H0V39.5165Z" fill="white"/>
</mask>
<g mask="url(#mask0_3111_688)">
<path d="M1988.18 1345.66H2.61585C1.75179 1345.66 1.03174 1344.94 1.03174 1344.07V1.56037C1.03174 0.696308 1.75179 -0.0237427 2.61585 -0.0237427H1988.18C1989.07 -0.0237427 1989.77 0.696308 1989.77 1.56037V1344.05C1989.77 1344.94 1989.07 1345.66 1988.18 1345.66ZM4.19997 1342.46H1986.6V3.16849H4.19997V1342.46Z" fill="#26FFBE"/>
</g>
<path d="M1253.42 848.868H737.381C736.493 848.868 735.797 848.148 735.797 847.26V498.347C735.797 497.483 736.493 496.763 737.381 496.763H1253.42C1254.31 496.763 1255 497.483 1255 498.347V847.26C1255 848.148 1254.31 848.868 1253.42 848.868ZM738.966 845.676H1251.83V499.955H738.966V845.676Z" fill="#26FFBE"/>
<path d="M206.775 138.01H1784.02V141.202H206.775V138.01Z" fill="#26FFBE"/>
<path d="M341.281 228.953H1649.52V232.145H341.281V228.953Z" fill="#26FFBE"/>
<path d="M436.616 293.397H1554.18V296.59H436.616V293.397Z" fill="#26FFBE"/>
<path d="M507.66 341.472H1483.11V344.64H507.66V341.472Z" fill="#26FFBE"/>
<path d="M562.697 378.675H1428.1V381.843H562.697V378.675Z" fill="#26FFBE"/>
<path d="M606.572 408.341H1384.23V411.509H606.572V408.341Z" fill="#26FFBE"/>
<path d="M642.358 432.534H1348.42V435.702H642.358V432.534Z" fill="#26FFBE"/>
<path d="M672.12 452.648H1318.65V455.84H672.12V452.648Z" fill="#26FFBE"/>
<path d="M697.274 469.641H1293.55V472.834H697.274V469.641Z" fill="#26FFBE"/>
<path d="M718.756 484.187H1272.02V487.379H718.756V484.187Z" fill="#26FFBE"/>
<path d="M182.125 2.8086L184.165 0.336426L785.336 497.148L783.296 499.596L182.125 2.8086Z" fill="#26FFBE"/>
<path d="M362.474 2.64003L364.778 0.455872L832.379 497.22L830.051 499.404L362.474 2.64003Z" fill="#26FFBE"/>
<path d="M542.799 2.40076L545.439 0.624634L879.471 497.388L876.831 499.165L542.799 2.40076Z" fill="#26FFBE"/>
<path d="M723.1 2.20778L726.052 1.00769L926.466 497.795L923.514 498.972L723.1 2.20778Z" fill="#26FFBE"/>
<path d="M903.544 1.84835L906.689 1.41632L973.485 498.204L970.317 498.636L903.544 1.84835Z" fill="#26FFBE"/>
<path d="M1017.38 498.204L1083.97 1.36804L1087.11 1.80008L1020.53 498.612L1017.38 498.204Z" fill="#26FFBE"/>
<path d="M1067.24 498.949L1064.29 497.773L1264.68 0.984741L1267.63 2.16082L1067.24 498.949Z" fill="#26FFBE"/>
<path d="M1113.99 499.261L1111.35 497.485L1445.34 0.696838L1447.98 2.44897L1113.99 499.261Z" fill="#26FFBE"/>
<path d="M1158.61 497.339L1625.85 0.239563L1628.18 2.42372L1160.94 499.523L1158.61 497.339Z" fill="#26FFBE"/>
<path d="M1205.53 497.172L1806.63 0.287842L1808.65 2.76002L1207.55 499.62L1205.53 497.172Z" fill="#26FFBE"/>
<mask id="mask1_3111_688" style="mask-type:luminance" maskUnits="userSpaceOnUse" x="0" y="0" width="744" height="1346">
<path d="M0 0H743.477V1345.63H0V0Z" fill="white"/>
</mask>
<g mask="url(#mask1_3111_688)">
<path d="M2.61585 1345.66C2.37584 1345.66 2.11181 1345.58 1.8718 1345.46C1.34376 1345.2 1.03174 1344.65 1.03174 1344.07V1.55986C1.03174 0.983815 1.34376 0.431776 1.8718 0.167758C2.39984 -0.120263 3.02388 -0.0722602 3.50391 0.263765L738.269 497.052C738.701 497.34 738.965 497.844 738.965 498.348V847.261C738.965 847.789 738.701 848.293 738.269 848.581L3.50391 1345.37C3.2399 1345.56 2.92787 1345.66 2.61585 1345.66ZM4.19997 4.58408V1341.07L735.797 846.421V499.212L4.19997 4.58408Z" fill="#26FFBE"/>
</g>
<path d="M205.191 139.618H208.359V1206.01H205.191V139.618Z" fill="#26FFBE"/>
<path d="M339.697 230.56H342.889V1115.07H339.697V230.56Z" fill="#26FFBE"/>
<path d="M435.007 295.004H438.199V1050.63H435.007V295.004Z" fill="#26FFBE"/>
<path d="M506.076 343.056H509.268V1002.58H506.076V343.056Z" fill="#26FFBE"/>
<path d="M561.113 380.258H564.281V965.372H561.113V380.258Z" fill="#26FFBE"/>
<path d="M604.988 409.924H608.156V935.706H604.988V409.924Z" fill="#26FFBE"/>
<path d="M640.774 434.118H643.966V911.512H640.774V434.118Z" fill="#26FFBE"/>
<path d="M670.536 454.232H673.728V891.4H670.536V454.232Z" fill="#26FFBE"/>
<path d="M695.665 471.25H698.858V874.407H695.665V471.25Z" fill="#26FFBE"/>
<path d="M717.171 485.771H720.363V859.861H717.171V485.771Z" fill="#26FFBE"/>
<path d="M1.84863 1220.68L736.589 814.21L738.126 816.995L3.38474 1223.46L1.84863 1220.68Z" fill="#26FFBE"/>
<path d="M1.94385 1098.39L736.805 782.479L738.077 785.408L3.21594 1101.32L1.94385 1098.39Z" fill="#26FFBE"/>
<path d="M2.13672 976.365L736.902 750.581L737.838 753.629L3.04879 979.413L2.13672 976.365Z" fill="#26FFBE"/>
<path d="M2.35254 854.076L737.189 718.97L737.765 722.114L2.92858 857.22L2.35254 854.076Z" fill="#26FFBE"/>
<path d="M2.56885 732.388L737.31 686.952L737.502 690.145L2.76086 735.556L2.56885 732.388Z" fill="#26FFBE"/>
<path d="M2.52051 613.435L2.71252 610.243L737.477 655.438L737.285 658.606L2.52051 613.435Z" fill="#26FFBE"/>
<path d="M2.35254 491.266L2.92858 488.122L737.694 623.611L737.117 626.756L2.35254 491.266Z" fill="#26FFBE"/>
<path d="M2.16016 369.219L3.09623 366.195L737.861 592.003L736.925 595.051L2.16016 369.219Z" fill="#26FFBE"/>
<path d="M2.01611 247.098L3.2642 244.17L738.029 560.344L736.781 563.273L2.01611 247.098Z" fill="#26FFBE"/>
<path d="M1.82373 125.025L3.35984 122.241L738.125 528.686L736.589 531.471L1.82373 125.025Z" fill="#26FFBE"/>
<mask id="mask2_3111_688" style="mask-type:luminance" maskUnits="userSpaceOnUse" x="0" y="841" width="1991" height="429">
<path d="M0 841.789H1990.8V1269.52H0V841.789Z" fill="white"/>
</mask>
<g mask="url(#mask2_3111_688)">
<path d="M1988.18 1345.66H2.61683C1.92079 1345.66 1.29674 1345.2 1.10473 1344.53C0.888709 1343.86 1.15273 1343.14 1.72877 1342.73L736.494 845.941C736.758 845.773 737.07 845.677 737.382 845.677H1253.42C1253.73 845.677 1254.04 845.773 1254.31 845.941L1989.07 1342.73C1989.65 1343.14 1989.91 1343.86 1989.7 1344.53C1989.5 1345.2 1988.88 1345.66 1988.18 1345.66ZM7.82521 1342.46H1982.98L1252.94 848.869H737.862L7.82521 1342.46Z" fill="#26FFBE"/>
</g>
<path d="M206.775 1204.43H1784.02V1207.62H206.775V1204.43Z" fill="#26FFBE"/>
<path d="M341.281 1113.49H1649.52V1116.66H341.281V1113.49Z" fill="#26FFBE"/>
<path d="M436.616 1049.04H1554.18V1052.23H436.616V1049.04Z" fill="#26FFBE"/>
<path d="M507.66 1000.99H1483.11V1004.16H507.66V1000.99Z" fill="#26FFBE"/>
<path d="M562.697 963.788H1428.1V966.956H562.697V963.788Z" fill="#26FFBE"/>
<path d="M606.572 934.122H1384.23V937.29H606.572V934.122Z" fill="#26FFBE"/>
<path d="M642.358 909.906H1348.42V913.098H642.358V909.906Z" fill="#26FFBE"/>
<path d="M672.12 889.792H1318.65V892.984H672.12V889.792Z" fill="#26FFBE"/>
<path d="M697.274 872.798H1293.55V875.991H697.274V872.798Z" fill="#26FFBE"/>
<path d="M718.756 858.254H1272.02V861.446H718.756V858.254Z" fill="#26FFBE"/>
<path d="M1205.53 848.509L1207.57 846.037L1808.72 1342.82L1806.71 1345.3L1205.53 848.509Z" fill="#26FFBE"/>
<path d="M1158.44 848.293L1160.75 846.108L1628.35 1342.87L1626.02 1345.08L1158.44 848.293Z" fill="#26FFBE"/>
<path d="M1445.34 1344.94L1111.35 848.148L1113.99 846.372L1447.98 1343.18L1445.34 1344.94Z" fill="#26FFBE"/>
<path d="M1264.68 1344.65L1064.29 847.861L1067.24 846.685L1267.63 1343.47L1264.68 1344.65Z" fill="#26FFBE"/>
<path d="M1017.24 847.525L1020.39 847.117L1087.18 1343.9L1084.01 1344.34L1017.24 847.525Z" fill="#26FFBE"/>
<path d="M903.641 1343.83L970.318 847.02L973.486 847.452L906.785 1344.26L903.641 1343.83Z" fill="#26FFBE"/>
<path d="M723.292 1343.45L923.443 846.563L926.395 847.764L726.244 1344.65L723.292 1343.45Z" fill="#26FFBE"/>
<path d="M542.871 1343.26L876.831 846.444L879.471 848.22L545.511 1345.03L542.871 1343.26Z" fill="#26FFBE"/>
<path d="M362.354 1342.87L830.147 846.276L832.451 848.46L364.658 1345.06L362.354 1342.87Z" fill="#26FFBE"/>
<path d="M182.149 1342.87L783.249 845.988L785.289 848.46L184.19 1345.32L182.149 1342.87Z" fill="#26FFBE"/>
<mask id="mask3_3111_688" style="mask-type:luminance" maskUnits="userSpaceOnUse" x="1247" y="74" width="744" height="1272">
<path d="M1247.32 74.3165H1990.8V1345.63H1247.32V74.3165Z" fill="white"/>
</mask>
<g mask="url(#mask3_3111_688)">
<path d="M1988.18 1345.66C1987.87 1345.66 1987.56 1345.56 1987.3 1345.37L1252.53 848.581C1252.1 848.293 1251.84 847.789 1251.84 847.285V498.372C1251.84 497.844 1252.1 497.34 1252.53 497.052L1987.3 0.264104C1987.78 -0.0719211 1988.42 -0.0959225 1988.93 0.168097C1989.46 0.456117 1989.77 0.984154 1989.77 1.5842V1344.07C1989.77 1344.65 1989.46 1345.2 1988.93 1345.46C1988.69 1345.58 1988.45 1345.66 1988.18 1345.66ZM1255 846.421L1986.6 1341.07V4.58442L1255 499.212V846.421Z" fill="#26FFBE"/>
</g>
<path d="M1782.44 139.618H1785.61V1206.01H1782.44V139.618Z" fill="#26FFBE"/>
<path d="M1647.91 230.56H1651.1V1115.07H1647.91V230.56Z" fill="#26FFBE"/>
<path d="M1552.6 295.004H1555.79V1050.63H1552.6V295.004Z" fill="#26FFBE"/>
<path d="M1481.53 343.056H1484.72V1002.58H1481.53V343.056Z" fill="#26FFBE"/>
<path d="M1426.49 380.258H1429.69V965.372H1426.49V380.258Z" fill="#26FFBE"/>
<path d="M1382.62 409.924H1385.81V935.706H1382.62V409.924Z" fill="#26FFBE"/>
<path d="M1346.83 434.118H1350.03V911.512H1346.83V434.118Z" fill="#26FFBE"/>
<path d="M1317.07 454.232H1320.26V891.4H1317.07V454.232Z" fill="#26FFBE"/>
<path d="M1291.94 471.25H1295.13V874.407H1291.94V471.25Z" fill="#26FFBE"/>
<path d="M1270.44 485.77H1273.63V859.861H1270.44V485.77Z" fill="#26FFBE"/>
<path d="M1254.19 531.47L1252.65 528.686L1987.42 122.216L1988.95 125.001L1254.19 531.47Z" fill="#26FFBE"/>
<path d="M1254.04 563.272L1252.79 560.344L1987.56 244.193L1988.81 247.122L1254.04 563.272Z" fill="#26FFBE"/>
<path d="M1253.9 595.051L1252.94 592.003L1987.7 366.195L1988.66 369.219L1253.9 595.051Z" fill="#26FFBE"/>
<path d="M1253.13 623.397L1987.97 488.291L1988.54 491.411L1253.71 626.517L1253.13 623.397Z" fill="#26FFBE"/>
<path d="M1253.51 658.559L1253.32 655.367L1988.09 610.195L1988.28 613.388L1253.51 658.559Z" fill="#26FFBE"/>
<path d="M1988.09 735.436L1253.32 690.264L1253.51 687.072L1988.28 732.243L1988.09 735.436Z" fill="#26FFBE"/>
<path d="M1253.13 721.852L1253.71 718.732L1988.47 854.198L1987.89 857.342L1253.13 721.852Z" fill="#26FFBE"/>
<path d="M1987.7 979.437L1252.94 753.629L1253.9 750.581L1988.66 976.413L1987.7 979.437Z" fill="#26FFBE"/>
<path d="M1987.56 1101.44L1252.79 785.288L1254.04 782.36L1988.81 1098.51L1987.56 1101.44Z" fill="#26FFBE"/>
<path d="M1987.42 1223.41L1252.65 816.945L1254.19 814.161L1988.95 1220.61L1987.42 1223.41Z" fill="#26FFBE"/>
</g>
</svg>
