<svg width="73" height="73" viewBox="0 0 73 73" fill="none" xmlns="http://www.w3.org/2000/svg">
<g clip-path="url(#clip0_249_451)">
<path d="M36.1988 71.1299C55.368 71.1299 70.9076 55.5903 70.9076 36.4211C70.9076 17.252 55.368 1.71234 36.1988 1.71234C17.0297 1.71234 1.49002 17.252 1.49002 36.4211C1.49002 55.5903 17.0297 71.1299 36.1988 71.1299Z" stroke="#D0E0E6" stroke-width="2.8924" stroke-linecap="round" stroke-linejoin="round"/>
<path d="M36.1988 1.71234V71.1299" stroke="#D0E0E6" stroke-width="2.8924" stroke-linecap="round" stroke-linejoin="round"/>
<path d="M70.9076 36.4211H1.49002" stroke="#D0E0E6" stroke-width="2.8924" stroke-linecap="round" stroke-linejoin="round"/>
<path d="M36.1988 1.71234C36.1988 1.71234 53.6569 15.1203 53.6569 36.4211C53.6569 57.722 36.1988 71.1299 36.1988 71.1299" stroke="#D0E0E6" stroke-width="2.8924" stroke-linecap="round" stroke-linejoin="round"/>
<path d="M36.3025 1.71234C36.3025 1.71234 18.8444 15.1203 18.8444 36.4211C18.8444 57.722 36.3025 71.1299 36.3025 71.1299" stroke="#D0E0E6" stroke-width="2.8924" stroke-linecap="round" stroke-linejoin="round"/>
<path d="M11.9027 60.3037C17.2918 55.5598 25.6212 50.3047 36.0761 50.3047C46.691 50.3047 55.115 55.722 60.495 60.5213" stroke="#D0E0E6" stroke-width="2.8924" stroke-linecap="round" stroke-linejoin="round"/>
<path d="M11.9027 12.3426C17.2918 17.0864 25.6212 22.3416 36.0761 22.3416C46.691 22.3416 55.115 16.9242 60.495 12.125" stroke="#D0E0E6" stroke-width="2.8924" stroke-linecap="round" stroke-linejoin="round"/>
</g>
<defs>
<clipPath id="clip0_249_451">
<rect width="72.31" height="72.31" fill="white" transform="translate(0.0438232 0.266113)"/>
</clipPath>
</defs>
</svg>
