<svg width="73" height="73" viewBox="0 0 73 73" fill="none" xmlns="http://www.w3.org/2000/svg">
<path d="M36.1768 37.551C33.0619 37.551 30.5276 40.0852 30.5276 43.2002C30.5276 46.3152 33.0619 48.8494 36.1768 48.8494C39.2918 48.8494 41.8261 46.3152 41.8261 43.2002C41.8261 40.0852 39.2918 37.551 36.1768 37.551ZM36.1768 46.5897C34.3081 46.5897 32.7873 45.0689 32.7873 43.2002C32.7873 41.3314 34.3081 39.8107 36.1768 39.8107C38.0456 39.8107 39.5664 41.3314 39.5664 43.2002C39.5664 45.0689 38.0456 46.5897 36.1768 46.5897Z" fill="#D0E0E6"/>
<path d="M47.4753 39.8106H45.7557C45.637 39.4739 45.5003 39.1451 45.3478 38.8243L46.5635 37.6074C47.4448 36.7273 47.4448 35.2924 46.5635 34.4122L44.9659 32.8146C44.0857 31.9345 42.6508 31.9345 41.7696 32.8146L40.5527 34.0303C40.2318 33.8778 39.9019 33.7411 39.5664 33.6225V31.9017C39.5664 30.6555 38.5529 29.642 37.3067 29.642H35.047C33.8008 29.642 32.7873 30.6555 32.7873 31.9017V33.6213C32.4517 33.74 32.1218 33.8778 31.801 34.0292L30.5841 32.8135C29.7028 31.9322 28.2679 31.9334 27.3878 32.8135L25.7902 34.4111C24.9089 35.2912 24.9089 36.7261 25.7902 37.6063L27.0059 38.8231C26.8534 39.144 26.7167 39.4728 26.598 39.8095H24.8784C23.6322 39.8095 22.6187 40.823 22.6187 42.0692V44.3289C22.6187 45.5751 23.6322 46.5886 24.8784 46.5886H26.598C26.7167 46.9252 26.8534 47.254 27.0059 47.5749L25.7902 48.7917C24.9089 49.6719 24.9089 51.1068 25.7902 51.9869L27.3878 53.5845C28.2679 54.4647 29.7028 54.4647 30.5841 53.5845L31.801 52.3688C32.1218 52.5214 32.4517 52.6581 32.7873 52.7767V54.4986C32.7873 55.7448 33.8008 56.7583 35.047 56.7583H37.3067C38.5529 56.7583 39.5664 55.7448 39.5664 54.4986V52.779C39.9019 52.6603 40.2318 52.5225 40.5527 52.3711L41.7696 53.5868C42.6497 54.467 44.0846 54.4658 44.9659 53.5868L46.5635 51.9892C47.4448 51.1091 47.4448 49.6742 46.5635 48.794L45.3478 47.5772C45.5003 47.2563 45.637 46.9275 45.7557 46.5908H47.4753C48.7215 46.5908 49.735 45.5773 49.735 44.3311V42.0714C49.735 40.8241 48.7215 39.8106 47.4753 39.8106ZM47.4753 44.33H44.9196C44.4044 44.33 43.9547 44.6791 43.8259 45.1774C43.6406 45.8948 43.3581 46.5784 42.9853 47.21C42.7232 47.654 42.7943 48.22 43.1593 48.5839L44.9659 50.3916L43.3672 51.9892L41.5605 50.1815C41.1979 49.8188 40.6318 49.7465 40.1878 50.0075C39.5551 50.3814 38.8704 50.665 38.1541 50.8503C37.6547 50.9791 37.3067 51.4277 37.3067 51.9429V54.4986H35.047V51.9429C35.047 51.4277 34.699 50.978 34.1996 50.8492C33.4833 50.6639 32.7986 50.3803 32.1659 50.0063C31.9874 49.9013 31.7897 49.8493 31.5919 49.8493C31.2993 49.8493 31.0101 49.9634 30.792 50.1803L28.9843 51.9881L27.3867 50.3905L29.1933 48.5827C29.5582 48.2189 29.6294 47.6529 29.3673 47.2088C28.9944 46.5773 28.712 45.8937 28.5267 45.1762C28.4001 44.6791 27.9493 44.33 27.4341 44.33H24.8784V42.0703H27.4341C27.9493 42.0703 28.399 41.7212 28.5278 41.2229C28.7131 40.5055 28.9956 39.8219 29.3684 39.1903C29.6305 38.7463 29.5593 38.1803 29.1944 37.8164L27.3878 36.0087L28.9865 34.4111L30.7931 36.2188C31.1569 36.5827 31.723 36.655 32.1659 36.3928C32.7986 36.0189 33.4833 35.7353 34.1996 35.55C34.6979 35.4212 35.047 34.9715 35.047 34.4563V31.9017H37.3067V34.4574C37.3067 34.9726 37.6547 35.4223 38.1541 35.5511C38.8704 35.7364 39.5551 36.02 40.1878 36.394C40.6318 36.6538 41.1967 36.5827 41.5605 36.22L43.3683 34.4122L44.9659 36.0098L43.1593 37.8176C42.7943 38.1814 42.7232 38.7474 42.9853 39.1915C43.3581 39.823 43.6406 40.5066 43.8259 41.2241C43.9547 41.7223 44.4044 42.0714 44.9196 42.0714H47.4753V44.33Z" fill="#D0E0E6"/>
<path d="M64.4229 21.7331H59.9036V20.6033C59.9036 17.3844 57.967 14.6128 55.2012 13.3802C56.6925 12.1351 57.6439 10.2652 57.6439 8.175C57.6439 4.43634 54.6035 1.39594 50.8648 1.39594C47.1262 1.39594 44.0858 4.43634 44.0858 8.175C44.0858 10.2652 45.0371 12.1351 46.5285 13.3802C43.7626 14.6128 41.8261 17.3844 41.8261 20.6033V21.7331H30.5276V20.6033C30.5276 17.3844 28.5911 14.6128 25.8252 13.3802C27.3166 12.1351 28.2679 10.2652 28.2679 8.175C28.2679 4.43634 25.2275 1.39594 21.4889 1.39594C17.7502 1.39594 14.7098 4.43634 14.7098 8.175C14.7098 10.2652 15.6611 12.1351 17.1525 13.3802C14.3867 14.6128 12.4501 17.3844 12.4501 20.6033V21.7331H7.93075C7.36357 21.7331 6.88451 22.1534 6.81107 22.715L1.16186 65.649C1.11892 65.9722 1.21722 66.2975 1.43189 66.5416C1.64656 66.7868 1.95614 66.9269 2.28153 66.9269H5.76145C5.70835 67.2975 5.67106 67.6726 5.67106 68.0567V70.3164C5.67106 70.9412 6.17723 71.4462 6.80091 71.4462H22.6187C23.2424 71.4462 23.7486 70.9412 23.7486 70.3164V68.0567C23.7486 67.6726 23.7113 67.2975 23.6582 66.9269H48.6955C48.6424 67.2975 48.6051 67.6726 48.6051 68.0567V70.3164C48.6051 70.9412 49.1113 71.4462 49.735 71.4462H65.5528C66.1765 71.4462 66.6826 70.9412 66.6826 70.3164V68.0567C66.6826 67.6726 66.6453 67.2975 66.5922 66.9269H70.0722C70.3976 66.9269 70.7071 66.7868 70.9218 66.5416C71.1365 66.2975 71.2348 65.9722 71.1918 65.649L65.5426 22.715C65.4692 22.1534 64.9901 21.7331 64.4229 21.7331ZM57.6439 20.6033V21.7331H53.2578L54.1346 19.9785C54.2464 19.7536 54.2815 19.4972 54.2317 19.2509L53.4126 15.1563C55.8395 15.7901 57.6439 17.9809 57.6439 20.6033ZM51.0682 14.9541L51.9404 19.3141L50.8648 21.4665L49.7892 19.3153L50.6614 14.9541H51.0682ZM50.8648 3.65562C52.3494 3.65562 53.6578 4.38437 54.4814 5.49275C52.1246 6.04411 49.6039 6.04411 47.2471 5.49275C48.0718 4.38437 49.3802 3.65562 50.8648 3.65562ZM46.4019 7.61121C47.8459 7.98179 49.3407 8.175 50.8648 8.175C52.389 8.175 53.8838 7.98179 55.3277 7.61121C55.3503 7.79763 55.3842 7.98179 55.3842 8.175C55.3842 10.6674 53.3572 12.6944 50.8648 12.6944C48.3724 12.6944 46.3454 10.6674 46.3454 8.175C46.3454 7.98179 46.3793 7.79763 46.4019 7.61121ZM44.0858 20.6033C44.0858 17.9809 45.8901 15.7901 48.3159 15.1563L47.4967 19.2509C47.447 19.4972 47.4821 19.7525 47.5939 19.9785L48.4718 21.7331H44.0858V20.6033ZM28.2679 20.6033V21.7331H23.8819L24.7586 19.9785C24.8705 19.7536 24.9055 19.4972 24.8558 19.2509L24.0367 15.1563C26.4636 15.7901 28.2679 17.9809 28.2679 20.6033ZM21.6922 14.9541L22.5645 19.3141L21.4889 21.4665L20.4133 19.3153L21.2855 14.9541H21.6922ZM21.4889 3.65562C22.9735 3.65562 24.2818 4.38437 25.1055 5.49275C22.7486 6.04411 20.228 6.04411 17.8711 5.49275C18.6959 4.38437 20.0043 3.65562 21.4889 3.65562ZM17.026 7.61121C18.4699 7.98179 19.9647 8.175 21.4889 8.175C23.013 8.175 24.5078 7.98179 25.9518 7.61121C25.9744 7.79763 26.0082 7.98179 26.0082 8.175C26.0082 10.6674 23.9813 12.6944 21.4889 12.6944C18.9964 12.6944 16.9695 10.6674 16.9695 8.175C16.9695 7.98179 17.0034 7.79763 17.026 7.61121ZM14.7098 20.6033C14.7098 17.9809 16.5142 15.7901 18.9399 15.1563L18.1208 19.2509C18.0711 19.4972 18.1061 19.7525 18.218 19.9785L19.0959 21.7331H14.7098V20.6033ZM21.4889 69.1866H7.93075V68.0567C7.93075 64.9417 10.465 62.4075 13.58 62.4075H15.8397C18.9546 62.4075 21.4889 64.9417 21.4889 68.0567V69.1866ZM14.7098 60.1478C12.2174 60.1478 10.1904 58.1209 10.1904 55.6284C10.1904 53.136 12.2174 51.1091 14.7098 51.1091C17.2022 51.1091 19.2292 53.136 19.2292 55.6284C19.2292 58.1209 17.2022 60.1478 14.7098 60.1478ZM64.4229 69.1866H50.8648V68.0567C50.8648 64.9417 53.3991 62.4075 56.514 62.4075H58.7737C61.8887 62.4075 64.4229 64.9417 64.4229 68.0567V69.1866ZM57.6439 60.1478C55.1514 60.1478 53.1245 58.1209 53.1245 55.6284C53.1245 53.136 55.1514 51.1091 57.6439 51.1091C60.1363 51.1091 62.1632 53.136 62.1632 55.6284C62.1632 58.1209 60.1363 60.1478 57.6439 60.1478ZM65.9087 64.6672C65.0975 62.9679 63.7032 61.6019 61.9802 60.8336C63.4716 59.5885 64.4229 57.7186 64.4229 55.6284C64.4229 51.8898 61.3825 48.8494 57.6439 48.8494C53.9052 48.8494 50.8648 51.8898 50.8648 55.6284C50.8648 57.7186 51.8161 59.5885 53.3075 60.8336C51.5845 61.6019 50.1903 62.9679 49.3791 64.6672H22.9746C22.1634 62.9679 20.7692 61.6019 19.0462 60.8336C20.5375 59.5885 21.4889 57.7186 21.4889 55.6284C21.4889 51.8898 18.4485 48.8494 14.7098 48.8494C10.9712 48.8494 7.93075 51.8898 7.93075 55.6284C7.93075 57.7186 8.88208 59.5885 10.3735 60.8336C8.65046 61.6019 7.25623 62.9679 6.445 64.6672H3.56955L8.92162 23.9928H63.4321L68.7841 64.6672H65.9087Z" fill="#D0E0E6"/>
<path d="M16.9695 26.2525H14.7098V28.5122H16.9695V26.2525Z" fill="#D0E0E6"/>
<path d="M16.9695 30.7719H14.7098V33.0316H16.9695V30.7719Z" fill="#D0E0E6"/>
<path d="M16.9695 35.2913H14.7098V37.5509H16.9695V35.2913Z" fill="#D0E0E6"/>
<path d="M21.4889 37.551H19.2292V39.8107H21.4889V37.551Z" fill="#D0E0E6"/>
<path d="M57.6439 26.2525H55.3842V28.5122H57.6439V26.2525Z" fill="#D0E0E6"/>
<path d="M57.6439 30.7719H55.3842V33.0316H57.6439V30.7719Z" fill="#D0E0E6"/>
<path d="M57.6439 35.2913H55.3842V37.5509H57.6439V35.2913Z" fill="#D0E0E6"/>
<path d="M53.1245 37.551H50.8648V39.8107H53.1245V37.551Z" fill="#D0E0E6"/>
<path d="M16.9695 44.33H14.7098V46.5897H16.9695V44.33Z" fill="#D0E0E6"/>
<path d="M16.9695 39.8107H14.7098V42.0704H16.9695V39.8107Z" fill="#D0E0E6"/>
<path d="M57.6439 39.8107H55.3842V42.0704H57.6439V39.8107Z" fill="#D0E0E6"/>
<path d="M57.6439 44.33H55.3842V46.5897H57.6439V44.33Z" fill="#D0E0E6"/>
</svg>
