<svg width="49" height="73" viewBox="0 0 49 73" fill="none" xmlns="http://www.w3.org/2000/svg">
<path d="M30.5625 7.33076C30.5625 10.7403 27.7985 13.5043 24.3889 13.5043C20.9794 13.5043 18.2154 10.7403 18.2154 7.33076C18.2154 3.92121 20.9794 1.15723 24.3889 1.15723C27.7985 1.15723 30.5625 3.92121 30.5625 7.33076Z" stroke="#D0E0E6" stroke-width="2.25"/>
<path d="M19.5234 26.7947C16.1223 26.7966 13.3078 26.8002 11.0582 26.8042C11.4683 24.357 12.0044 22.332 12.4689 20.8474C13.0938 18.8495 14.6966 17.3476 16.7949 16.9988C18.5043 16.7145 20.9965 16.4539 24.3895 16.4539C27.7825 16.4539 30.2745 16.7145 31.9837 16.9988C34.0816 17.3476 35.6841 18.8494 36.309 20.847C36.7736 22.3316 37.3098 24.3568 37.72 26.8042C35.4703 26.8002 32.6559 26.7966 29.2547 26.7947" stroke="#D0E0E6" stroke-width="2.25"/>
<path d="M6.24993 44.2155C5.93605 42.0619 6.22862 43.9854 5.53728 38.2538C5.23589 38.2498 4.98411 38.2464 4.78135 38.2434C3.8212 38.2294 2.59508 37.6961 2.18937 36.3582C2.02151 35.8046 1.88513 35.056 1.88513 34.0921C1.88513 33.1282 2.02151 32.3796 2.18937 31.826C2.59507 30.4881 3.82119 29.9548 4.78135 29.9408C6.60371 29.9142 12.3855 29.843 22.5643 29.8353V24.3607C22.5643 23.353 23.3813 22.5361 24.3889 22.5361C25.3966 22.5361 26.2136 23.353 26.2136 24.3607V29.8353C36.3923 29.843 42.1741 29.9142 43.9966 29.9408C44.9567 29.9548 46.1828 30.4881 46.5885 31.826C46.7564 32.3796 46.8927 33.1282 46.8927 34.0921C46.8927 35.056 46.7564 35.8046 46.5885 36.3582C46.1828 37.6961 44.9567 38.2294 43.9966 38.2434C43.7938 38.2464 43.542 38.2498 43.2406 38.2538C42.5493 43.9854 42.845 41.9213 42.5312 44.0749" stroke="#D0E0E6" stroke-width="2.25"/>
<path d="M11.8768 49.842C11.8768 51.7031 10.3622 53.2178 8.50102 53.2178C6.63989 53.2178 5.12526 51.7031 5.12526 49.842C5.12526 47.9809 6.63989 46.4662 8.50102 46.4662C10.3622 46.4662 11.8768 47.9809 11.8768 49.842ZM43.3821 49.842C43.3821 51.7031 41.8675 53.2178 40.0064 53.2178C38.1452 53.2178 36.6306 51.7031 36.6306 49.842C36.6306 47.9809 38.1452 46.4662 40.0064 46.4662C41.8675 46.4662 43.3821 47.9808 43.3821 49.842ZM40.8098 64.4697C40.224 61.8104 38.7195 59.5142 36.6402 57.9068C36.9894 57.7844 37.3646 57.7181 37.756 57.7181H42.2567C44.1179 57.7181 45.6325 59.2328 45.6325 61.0939V63.3443C45.6325 63.9677 45.1305 64.4697 44.5071 64.4697H40.8098ZM31.005 48.7168C31.005 52.4486 27.9854 55.4681 24.2537 55.4681C20.5219 55.4681 17.5024 52.4486 17.5024 48.7168C17.5024 44.985 20.5219 41.9655 24.2537 41.9655C27.9854 41.9655 31.005 44.985 31.005 48.7168ZM24.2537 61.0937C26.0757 61.0937 27.7838 60.6707 29.3213 59.9685H29.6546C33.5059 59.9685 36.631 63.0936 36.631 66.9449V68.9702C36.631 70.2125 35.6227 71.2208 34.3804 71.2208H14.127C12.8847 71.2208 11.8764 70.2125 11.8764 68.9702V66.9449C11.8764 63.0936 15.0015 59.9685 18.8528 59.9685H19.187C20.7283 60.67 22.4301 61.0937 24.2537 61.0937ZM10.7514 57.7181C11.1427 57.7181 11.518 57.7844 11.8671 57.9068C9.78737 59.5144 8.28226 61.8109 7.69231 64.4697H4.00026C3.37684 64.4697 2.87488 63.9677 2.87488 63.3443V61.0939C2.87488 59.2328 4.38951 57.7181 6.25064 57.7181H10.7514Z" stroke="#D0E0E6" stroke-width="2.25"/>
</svg>
