<svg width="490" height="256" viewBox="0 0 490 256" fill="none" xmlns="http://www.w3.org/2000/svg">
<path d="M47.1406 36V30.006H68.1466L71.1346 27L68.1466 23.994H47.1406V14.994L53.1346 9H77.1466V14.994H56.1406L53.1346 18H71.1346L77.1466 23.994V30.006L71.1346 36H47.1406ZM86.1112 36L80.1172 30.006V9H86.1112V27L89.1172 30.006H101.123L104.111 27V9H110.123V30.006L104.111 36H86.1112ZM137.088 18L134.1 14.994H119.088V18H137.088ZM113.094 36V9H137.088L143.1 14.994V23.994H119.088V36H113.094ZM170.064 18L167.076 14.994H152.064V18H170.064ZM146.07 36V9H170.064L176.076 14.994V23.994H152.064V36H146.07ZM200.053 30.006L203.041 27V18L200.053 14.994H188.047L185.041 18V27L188.047 30.006H200.053ZM185.041 36L179.047 30.006V14.994L185.041 9H203.041L209.053 14.994V30.006L203.041 36H185.041ZM236.017 18L233.029 14.994H218.017V18H236.017ZM212.023 36V9H236.017L242.029 14.994V23.994H236.017L242.029 30.006V36H236.017V32.994L227.017 23.994H218.017V36H212.023ZM257.006 36V14.994H245V9H275.006V14.994H263V36H257.006ZM283.971 36L277.977 30.006V9H307.983V14.994H283.971V18H307.983V23.994H283.971V27L286.977 30.006H307.983V36H283.971ZM310.953 36V9H316.947V30.006H331.959L334.947 27V18L331.959 14.994H316.947L322.959 9H334.947L340.959 14.994V30.006L334.947 36H310.953ZM397.912 30.006L400.9 27L397.912 23.994H382.9V30.006H397.912ZM376.906 36V9H400.9L406.912 14.994V18H400.9L397.912 14.994H382.9V18H400.9L406.912 23.994V30.006L400.9 36H376.906ZM421.889 36V23.994H418.883L409.883 14.994V9H415.877V12.006L421.889 18H427.883L433.877 12.006V9H439.889V14.994L430.889 23.994H427.883V36H421.889Z" fill="#D0E0E6"/>
<path d="M439.434 100L473 132.841V205.909L439.434 238.75H50.8072L17 206.15V132.841L50.5657 100H379H439.434Z" fill="#141715" stroke="url(#paint0_linear_249_8163)" stroke-width="4"/>
<g filter="url(#filter0_f_249_8163)">
<path d="M476.748 208.537L477.5 207.802V206.75V132V130.948L476.748 130.213L441.998 96.2131L441.27 95.5H440.25H379H49.75H48.7304L48.0016 96.2131L13.2516 130.213L12.5 130.948V132V207V208.062L13.2647 208.8L48.2647 242.55L48.991 243.25H50H440.25H441.27L441.998 242.537L476.748 208.537Z" stroke="url(#paint1_linear_249_8163)" stroke-width="5"/>
</g>
<defs>
<filter id="filter0_f_249_8163" x="0" y="83" width="490" height="172.75" filterUnits="userSpaceOnUse" color-interpolation-filters="sRGB">
<feFlood flood-opacity="0" result="BackgroundImageFix"/>
<feBlend mode="normal" in="SourceGraphic" in2="BackgroundImageFix" result="shape"/>
<feGaussianBlur stdDeviation="5" result="effect1_foregroundBlur_249_8163"/>
</filter>
<linearGradient id="paint0_linear_249_8163" x1="15" y1="169.375" x2="475" y2="169.375" gradientUnits="userSpaceOnUse">
<stop stop-color="#875CDD"/>
<stop offset="1" stop-color="#6FF0F2"/>
</linearGradient>
<linearGradient id="paint1_linear_249_8163" x1="15" y1="169.375" x2="475" y2="169.375" gradientUnits="userSpaceOnUse">
<stop stop-color="#875CDD"/>
<stop offset="1" stop-color="#6FF0F2"/>
</linearGradient>
</defs>
</svg>
