<svg width="617" height="785" viewBox="0 0 617 785" fill="none" xmlns="http://www.w3.org/2000/svg">
<path d="M-77.791 785C-42.0094 785 -3.43695 781.455 36.8381 774.497C78.3806 767.311 120.538 756.684 162.208 742.875C206.119 728.34 248.698 710.526 288.794 689.894C331.591 667.914 371.38 642.8 407.02 615.315C474.423 563.347 526.591 503.437 562.053 437.249C601.918 362.881 620.263 281.163 616.525 194.324C615.591 172.076 612.134 150.459 606.309 130.114C600.459 109.615 592.252 90.7791 582.011 74.1317C560.248 38.7536 530.009 14.9006 494.612 5.1052C466.678 -2.63555 436.171 -1.56522 403.846 8.25884C368.896 18.8856 332.103 39.7952 294.555 70.4046C261.974 96.9525 238.341 124.982 222.262 156.078C208.142 183.429 201.613 209.222 195.34 234.145C185.751 272.209 176.687 308.151 140.624 339.439C100.592 374.186 30.9875 400.313 -78.4183 421.624C-124.928 430.684 -166.009 443.088 -200.498 458.484C-232.58 472.809 -259.195 489.791 -279.563 508.932C-298.6 526.832 -312.093 546.528 -319.736 567.495C-326.956 587.267 -328.8 607.794 -325.241 628.474C-321.72 649.021 -313.002 669.003 -299.329 687.868C-285.734 706.618 -267.875 723.418 -246.214 737.772C-223.939 752.546 -198.552 764.138 -170.759 772.156C-141.391 780.671 -110.116 785 -77.791 785ZM614.195 194.371L611.827 194.429C620.647 400.782 503.471 535.872 403.628 612.869C242.272 737.304 43.4311 781.455 -77.791 781.455C-201.164 781.455 -305.538 715.505 -320.568 628.035C-333.05 555.253 -275.684 463.711 -77.1893 425.036C33.1767 403.515 103.524 377.053 144.208 341.732C161.056 327.092 173.154 310.913 182.256 290.806C190.347 272.983 195.02 254.415 199.974 234.776C212.187 186.325 226.026 131.413 298.037 72.7555C368.973 15.0057 436.375 -7.27044 492.973 8.41174C527.18 17.8918 556.484 41.1045 577.722 75.5938C598.116 108.669 609.906 149.781 611.788 194.429L614.195 194.371Z" fill="url(#paint0_linear_249_247)"/>
<path d="M-18.4664 739.884C10.863 739.884 42.4583 736.988 75.4747 731.283C109.515 725.396 144.081 716.7 178.185 705.395C252.769 680.701 322.105 644.568 378.703 600.914C433.905 558.32 476.651 509.248 505.698 455.043C538.344 394.14 553.373 327.168 550.339 256.03C549.571 237.796 546.754 220.078 541.967 203.412C537.166 186.611 530.47 171.159 522.059 157.512C504.175 128.499 479.339 108.908 450.253 100.861C427.273 94.5061 402.207 95.3662 375.669 103.441C346.967 112.167 316.805 129.301 286.042 154.387C226.269 203.077 214.837 248.528 204.724 288.617C196.876 319.714 189.476 349.129 160.045 374.654C127.336 403.047 70.4179 424.405 -19.0296 441.836C-57.1412 449.262 -90.7976 459.42 -119.077 472.054C-145.398 483.799 -167.2 497.713 -183.906 513.443C-199.525 528.131 -210.611 544.282 -216.859 561.474C-222.786 577.701 -224.284 594.559 -221.391 611.512C-218.497 628.369 -211.341 644.778 -200.152 660.231C-188.989 675.617 -174.343 689.397 -156.6 701.171C-138.319 713.288 -117.464 722.797 -94.7022 729.381C-70.6729 736.338 -45.0049 739.884 -18.4664 739.884ZM547.971 256.058L545.602 256.106C552.823 424.902 456.948 535.423 375.285 598.41C243.283 700.215 80.6467 736.31 -18.5048 736.31C-119.282 736.31 -204.543 682.449 -216.82 611.024C-227.036 551.573 -180.13 476.823 -17.9031 445.191C72.5174 427.559 130.19 405.866 163.565 376.9C193.842 350.639 201.331 320.784 209.32 289.191C219.292 249.57 230.635 204.664 289.498 156.709C347.415 109.529 402.45 91.3525 448.614 104.139C476.51 111.851 500.398 130.811 517.771 158.974C534.439 186.009 544.066 219.61 545.628 256.135L547.971 256.058Z" fill="url(#paint1_linear_249_247)"/>
<path d="M33.9063 697.529C56.8987 697.529 81.6834 695.264 107.569 690.783C134.21 686.167 161.299 679.343 188.055 670.494C246.496 651.133 300.828 622.817 345.148 588.614C388.394 555.252 421.909 516.807 444.671 474.319C470.275 426.594 482.027 374.138 479.659 318.414C478.404 289.42 470.723 262.7 457.473 241.16C443.417 218.367 423.893 202.943 401.016 196.617C374.619 189.297 330.785 190.644 271.921 238.599C225.053 276.786 216.053 312.422 208.142 343.844C201.997 368.146 196.21 391.091 173.269 411.017C147.742 433.188 103.28 449.854 33.3559 463.482C3.46323 469.321 -22.9345 477.262 -45.1075 487.163C-65.7571 496.385 -82.8734 507.298 -95.9827 519.645C-108.26 531.18 -116.952 543.871 -121.894 557.384C-126.541 570.151 -127.757 583.358 -125.453 596.689C-123.187 609.954 -117.58 622.817 -108.785 634.963C-100.028 647.042 -88.5319 657.86 -74.5778 667.102C-60.2139 676.61 -43.853 684.083 -25.9686 689.244C-7.06003 694.768 13.0903 697.529 33.9063 697.529ZM477.278 318.472L474.909 318.519C480.555 450.504 405.625 536.914 341.769 586.168C238.585 665.745 111.435 693.984 33.9063 693.984C-44.7235 693.984 -111.23 651.964 -120.78 596.25C-128.73 549.882 -92.1165 491.559 34.5081 466.893C105.405 453.084 150.597 436.055 176.789 413.31C200.563 392.678 206.464 369.264 212.699 344.494C220.521 313.521 229.367 278.43 275.339 240.978C320.53 204.167 363.391 189.966 399.314 199.923C421 205.934 439.614 220.709 453.146 242.641C466.153 263.77 473.693 289.993 474.909 318.548L477.278 318.472Z" fill="url(#paint2_linear_249_247)"/>
<path d="M87.5849 659.781C122.099 659.781 162.489 652.7 201.331 639.827C244.435 625.56 284.505 604.669 317.253 579.45C349.155 554.832 373.889 526.468 390.659 495.133C409.529 459.908 418.209 421.232 416.468 380.13C415.559 358.714 409.875 338.97 400.069 323.049C389.648 306.144 375.143 294.714 358.129 289.993C338.491 284.556 305.949 285.54 262.358 321.042C227.728 349.282 221.11 375.562 215.246 398.775C210.548 417.372 206.503 433.446 189.719 448.038C171.003 464.284 138.358 476.507 86.9832 486.503C64.9126 490.804 45.4152 496.69 29.067 504.011C13.7943 510.834 1.13309 518.909 -8.55801 528.055C-17.6346 536.598 -24.1124 546.002 -27.7482 556.008C-31.1919 565.459 -32.0625 575.254 -30.3982 585.126C-28.7212 594.95 -24.5349 604.478 -18.0443 613.471C-11.5665 622.425 -3.05319 630.424 7.26523 637.276C17.9037 644.338 30.0016 649.833 43.2516 653.684C57.2826 657.727 72.1713 659.781 87.5849 659.781ZM339.605 291.035C345.43 291.035 351.05 291.79 356.478 293.281C372.314 297.658 385.884 308.466 395.78 324.483C405.343 339.983 410.848 359.259 411.757 380.206C415.905 477.233 360.805 540.765 313.873 576.974C237.983 635.479 144.567 656.245 87.6105 656.245C30.04 656.245 -18.6716 625.474 -25.6871 584.658C-31.512 550.713 -4.65341 507.996 88.2122 489.896C140.547 479.709 173.922 467.104 193.317 450.303C210.919 435.013 215.285 417.716 219.919 399.405C225.642 376.661 232.158 350.897 265.891 323.393C292.11 302.034 317.253 291.035 339.605 291.035Z" fill="url(#paint3_linear_249_247)"/>
<path d="M119.527 631.208C147.499 631.208 180.234 625.474 211.688 615.057C246.599 603.494 279.065 586.588 305.565 566.166C344.099 536.445 389.329 484.324 385.923 404.719C385.181 387.345 380.585 371.348 372.635 358.427C364.16 344.676 352.331 335.377 338.453 331.516C322.451 327.092 295.951 327.875 260.515 356.707C232.402 379.605 227.038 400.915 222.301 419.723C218.524 434.726 215.247 447.666 201.754 459.392C186.686 472.465 160.365 482.337 118.938 490.412C101.04 493.91 85.2428 498.669 71.9543 504.613C59.5748 510.136 49.2948 516.702 41.4088 524.118C34.022 531.075 28.786 538.71 25.8159 546.862C23.0379 554.545 22.2954 562.516 23.6908 570.543C26.4561 586.617 37.325 601.64 54.3132 612.926C72.0695 624.7 95.2156 631.208 119.527 631.208ZM383.542 404.738L381.174 404.795C384.528 483.149 340.054 534.439 302.147 563.662C240.915 610.89 165.486 627.662 119.527 627.662C73.1833 627.662 33.9836 602.92 28.338 570.075C23.6652 542.772 45.275 508.388 120.115 493.804C162.528 485.548 189.617 475.332 205.351 461.685C219.677 449.262 223.197 435.214 226.974 420.372C231.608 402.034 236.831 381.248 264.035 359.077C290.676 337.384 315.82 328.993 336.853 334.804C349.54 338.321 360.422 346.988 368.372 359.861C376.078 372.361 380.508 387.89 381.25 404.795L383.542 404.738Z" fill="url(#paint4_linear_249_247)"/>
<path d="M148.779 606.303C167.227 606.303 188.811 602.529 209.537 595.648C232.517 588.041 253.883 576.898 271.32 563.452C296.719 543.89 326.458 509.563 324.23 457.175C323.181 432.748 310.763 413.673 292.558 408.647C281.817 405.675 264.112 406.172 240.608 425.323C222.019 440.451 218.499 454.518 215.349 466.941C210.51 486.198 206.67 501.411 148.19 512.822C125.134 517.323 107.877 524.825 96.9309 535.117C87.3038 544.177 83.22 554.861 85.1403 566.013C86.9837 576.688 94.2041 586.694 105.47 594.167C117.299 602.003 132.674 606.303 148.779 606.303ZM282.419 410.835C285.376 410.835 288.244 411.198 290.958 411.982C299.049 414.228 306.064 419.799 311.147 428.104C316.139 436.236 319.033 446.318 319.519 457.337C321.721 508.493 292.673 541.969 267.94 561.034C227.985 591.873 178.774 602.787 148.779 602.787C114.649 602.787 92.9111 583.616 89.813 565.564C86.7789 547.932 100.835 525.685 149.381 516.234C210.753 504.269 215.042 487.287 219.996 467.601C222.992 455.636 226.41 442.123 244.09 427.712C257.826 416.569 270.872 410.835 282.419 410.835Z" fill="url(#paint5_linear_249_247)"/>
<path d="M186.032 573.305C198.335 573.305 212.737 570.772 226.589 566.195C241.888 561.111 256.123 553.714 267.773 544.75C284.685 531.705 304.528 508.827 303.03 473.927C302.326 457.49 293.889 444.675 281.548 441.263C274.225 439.227 262.153 439.514 246.253 452.463C233.797 462.622 231.428 472.025 229.342 480.311C227.729 486.694 226.346 492.189 220.726 497.054C214.376 502.577 203.149 506.744 185.431 510.213C169.992 513.233 158.444 518.26 151.045 525.188C144.528 531.314 141.776 538.557 143.069 546.078C144.324 553.294 149.163 560.04 156.805 565.096C164.794 570.381 175.176 573.305 186.032 573.305ZM300.687 473.975L298.319 474.032C299.753 507.69 280.665 529.727 264.381 542.275C238.085 562.573 205.76 569.759 186.058 569.759C163.923 569.759 149.79 557.336 147.806 545.639C145.258 530.817 159.801 518.862 186.66 513.625C205.351 509.974 217.308 505.444 224.323 499.347C230.763 493.747 232.337 487.526 234.014 480.932C236.063 472.732 238.226 464.208 249.774 454.804C260.937 445.716 271.358 442.152 279.935 444.522C290.33 447.379 297.73 459.239 298.357 474.003L300.687 473.975Z" fill="url(#paint6_linear_249_247)"/>
<defs>
<linearGradient id="paint0_linear_249_247" x1="493.197" y1="5.32469e-06" x2="-203.197" y2="785" gradientUnits="userSpaceOnUse">
<stop stop-color="#2DE579"/>
<stop offset="0.350496" stop-color="#493277"/>
</linearGradient>
<linearGradient id="paint1_linear_249_247" x1="449.274" y1="96.6631" x2="-121.341" y2="739.911" gradientUnits="userSpaceOnUse">
<stop stop-color="#2DE579"/>
<stop offset="0.350496" stop-color="#493277"/>
</linearGradient>
<linearGradient id="paint2_linear_249_247" x1="400.41" y1="193.329" x2="-46.8592" y2="697.69" gradientUnits="userSpaceOnUse">
<stop stop-color="#2DE579"/>
<stop offset="0.350496" stop-color="#493277"/>
</linearGradient>
<linearGradient id="paint3_linear_249_247" x1="357.945" y1="287.546" x2="27.7496" y2="659.98" gradientUnits="userSpaceOnUse">
<stop stop-color="#2DE579"/>
<stop offset="0.350496" stop-color="#493277"/>
</linearGradient>
<linearGradient id="paint4_linear_249_247" x1="338.485" y1="329.521" x2="70.8779" y2="631.433" gradientUnits="userSpaceOnUse">
<stop stop-color="#2DE579"/>
<stop offset="0.350496" stop-color="#493277"/>
</linearGradient>
<linearGradient id="paint5_linear_249_247" x1="292.916" y1="407.297" x2="116.404" y2="606.564" gradientUnits="userSpaceOnUse">
<stop stop-color="#2DE579"/>
<stop offset="0.350496" stop-color="#493277"/>
</linearGradient>
<linearGradient id="paint6_linear_249_247" x1="282.08" y1="440.325" x2="164.149" y2="573.625" gradientUnits="userSpaceOnUse">
<stop stop-color="#2DE579"/>
<stop offset="0.350496" stop-color="#493277"/>
</linearGradient>
</defs>
</svg>
